<svg xmlns="http://www.w3.org/2000/svg">
    <symbol id="facebook" viewBox="0 0 22 22">
       <path fill="#F16250" d="M5.009,7.602v3.824h3.097v9.282h3.854v-9.282h3.854V7.602h-3.854v-1.96c0-0.327,0.082-0.606,0.246-0.834
	c0.166-0.229,0.336-0.343,0.512-0.343h3.097V0.707h-3.097c-0.637,0-1.235,0.13-1.795,0.392c-0.56,0.262-1.05,0.616-1.466,1.062
	C9.037,2.607,8.708,3.137,8.467,3.746C8.226,4.354,8.104,5.009,8.104,5.707v1.895H5.009z"/> 
    </symbol>
    <symbol id="twitter" viewBox="0 0 24 22">
       <path fill="#00ACEE" d="M21.576,4.597c-0.425,0.126-0.875,0.214-1.35,0.264c0.925-0.603,1.588-1.432,1.985-2.485
	c-0.424,0.226-0.886,0.439-1.387,0.641c-0.499,0.201-1.001,0.339-1.499,0.414c-0.426-0.426-0.913-0.772-1.462-1.036
	C17.314,2.131,16.702,2,16.029,2c-0.625,0-1.208,0.12-1.742,0.358c-0.539,0.238-1.012,0.565-1.426,0.979
	c-0.412,0.415-0.737,0.904-0.974,1.468c-0.238,0.564-0.356,1.161-0.356,1.788c0,0.352,0.037,0.678,0.113,0.979
	C9.77,7.496,8.033,7.039,6.435,6.197c-1.601-0.841-2.961-1.964-4.085-3.37c-0.4,0.729-0.601,1.495-0.601,2.297
	c0,0.803,0.175,1.531,0.526,2.183c0.349,0.655,0.847,1.181,1.499,1.583c-0.424,0-0.806-0.051-1.144-0.152
	c-0.336-0.1-0.655-0.224-0.956-0.375v0.038c0,1.104,0.343,2.065,1.031,2.88c0.686,0.816,1.555,1.337,2.604,1.563
	c-0.2,0.051-0.394,0.088-0.581,0.113c-0.188,0.025-0.394,0.036-0.618,0.036c-0.251,0-0.526-0.036-0.825-0.112
	c0.273,0.903,0.793,1.651,1.556,2.24c0.761,0.591,1.642,0.9,2.642,0.922c-1.575,1.281-3.437,1.922-5.584,1.922
	c-0.201,0-0.388,0-0.562,0c-0.173,0-0.35-0.012-0.524-0.037c1.025,0.653,2.118,1.161,3.279,1.524C5.254,19.817,6.471,20,7.746,20
	c2.074,0,3.904-0.39,5.491-1.169c1.588-0.777,2.925-1.789,4.012-3.031c1.087-1.244,1.911-2.636,2.474-4.182
	c0.562-1.543,0.842-3.067,0.842-4.575V6.517c0.9-0.703,1.648-1.494,2.25-2.373C22.413,4.321,22,4.471,21.576,4.597z"/> 
    </symbol>
    <symbol id="youtube" viewBox="0 0 24 23">
       <path fill="#F16250" d="M13.895,16.344c0.045-0.045,0.087-0.074,0.123-0.088c0.035-0.01,0.074-0.039,0.123-0.088
	c0.07,0,0.123-0.012,0.158-0.035s0.088-0.035,0.16-0.035c0.188,0,0.318,0.061,0.388,0.176c0.071,0.094,0.105,0.271,0.105,0.529v3.42
	c0,0.256-0.011,0.41-0.034,0.455c-0.071,0.049-0.129,0.09-0.176,0.125c-0.047,0.033-0.119,0.053-0.213,0.053
	c-0.07,0-0.129-0.012-0.176-0.035c-0.048-0.021-0.095-0.035-0.141-0.035c-0.142-0.07-0.248-0.152-0.318-0.246V16.344z
	 M18.766,16.203c0.07-0.023,0.164-0.035,0.281-0.035c0.095,0,0.176,0.012,0.246,0.035c0.072,0.025,0.129,0.047,0.177,0.07
	c0.095,0.188,0.142,0.402,0.142,0.637v0.633h-1.164V16.91c0-0.119,0.004-0.234,0.018-0.354c0.012-0.117,0.053-0.213,0.123-0.283
	C18.635,16.25,18.693,16.229,18.766,16.203z M11.423,9.685c-0.094-0.14-0.141-0.281-0.141-0.421V5.246
	c0-0.188,0.059-0.318,0.177-0.387c0.071-0.117,0.223-0.177,0.458-0.177c0.142,0,0.294,0.061,0.458,0.177
	c0.119,0.07,0.178,0.2,0.178,0.387v4.018c0,0.164-0.061,0.305-0.178,0.421c-0.139,0.141-0.293,0.212-0.458,0.212
	C11.683,9.896,11.516,9.826,11.423,9.685L11.423,9.685z M2.53,12.785v1.27H4.12v7.752h1.447v-7.752h1.587v-1.27H2.53z M5.635,1.017
	H3.977l1.977,6.025v3.911h1.693V6.831l1.977-5.814H7.93L6.835,4.999h-0.07L5.635,1.017z M9.765,9.122
	c0,0.612,0.187,1.092,0.564,1.444c0.399,0.4,0.928,0.599,1.587,0.599c0.66,0,1.189-0.199,1.589-0.599
	c0.375-0.305,0.564-0.786,0.564-1.444V5.316c0-0.259-0.047-0.505-0.142-0.74c-0.095-0.233-0.235-0.435-0.423-0.6
	c-0.375-0.375-0.882-0.563-1.518-0.563c-0.353,0-0.659,0.041-0.917,0.123c-0.258,0.083-0.507,0.206-0.741,0.37
	C9.953,4.281,9.766,4.752,9.766,5.314L9.765,9.122L9.765,9.122z M14.758,15.096c-0.105,0.01-0.206,0.051-0.299,0.121
	c-0.095,0.047-0.189,0.105-0.283,0.176s-0.188,0.154-0.281,0.246v-2.855h-1.342v9.021h1.342v-0.492
	c0.094,0.094,0.188,0.176,0.281,0.244c0.094,0.072,0.188,0.131,0.283,0.178c0.234,0.094,0.469,0.141,0.705,0.141
	c0.4,0,0.695-0.129,0.883-0.387c0.095-0.119,0.171-0.266,0.229-0.439c0.059-0.178,0.087-0.395,0.087-0.654v-3.666
	c0-0.281-0.028-0.521-0.087-0.721c-0.06-0.199-0.135-0.381-0.229-0.547c-0.26-0.258-0.577-0.387-0.953-0.387
	C14.975,15.076,14.865,15.082,14.758,15.096z M15.27,3.589v6.166c0,0.235,0.03,0.429,0.09,0.582
	c0.058,0.153,0.122,0.276,0.193,0.369c0.188,0.259,0.46,0.387,0.811,0.387c0.119,0,0.254-0.028,0.406-0.088
	c0.153-0.057,0.287-0.112,0.407-0.159c0.163-0.118,0.322-0.222,0.476-0.317c0.152-0.095,0.3-0.223,0.441-0.387v0.81h1.518V3.587
	h-1.518V9.19c-0.142,0.188-0.295,0.318-0.459,0.387c-0.188,0.119-0.342,0.177-0.46,0.177s-0.224-0.047-0.317-0.142
	c-0.025-0.023-0.035-0.141-0.035-0.353V3.587H15.27V3.589z M20.989,16.91c0-0.33-0.042-0.607-0.124-0.828
	c-0.082-0.223-0.207-0.43-0.369-0.617c-0.328-0.328-0.8-0.494-1.413-0.494c-0.589,0-1.071,0.189-1.448,0.564
	c-0.375,0.375-0.563,0.832-0.563,1.375v2.992c0,0.611,0.165,1.117,0.495,1.518c0.375,0.375,0.846,0.562,1.41,0.562
	c0.683,0,1.189-0.164,1.52-0.492c0.327-0.4,0.494-0.93,0.494-1.59v-0.316h-1.377V19.9c0,0.189-0.006,0.35-0.019,0.479
	c-0.011,0.127-0.053,0.229-0.123,0.297c-0.047,0.025-0.105,0.049-0.176,0.072c-0.069,0.025-0.151,0.033-0.246,0.033
	c-0.235,0-0.389-0.057-0.46-0.172c-0.095-0.096-0.141-0.33-0.141-0.709v-1.268h2.542V16.91H20.989z M11.53,21.807v-6.66h-1.341
	v5.076c-0.094,0.117-0.212,0.221-0.353,0.316c-0.118,0.072-0.201,0.113-0.248,0.123c-0.047,0.012-0.094,0.016-0.14,0.016
	c-0.167,0-0.271-0.021-0.319-0.068c0-0.049-0.012-0.102-0.035-0.16c-0.024-0.059-0.035-0.133-0.035-0.227v-5.076H7.717v5.568
	c0,0.352,0.083,0.658,0.248,0.916c0.142,0.164,0.376,0.248,0.707,0.248c0.258,0,0.516-0.072,0.777-0.213
	c0.234-0.094,0.481-0.307,0.741-0.635v0.775H11.53z"/> 
    </symbol></svg>